<svg width="36" height="36" viewBox="0 0 36 36" fill="none" xmlns="http://www.w3.org/2000/svg">
<path d="M24.5062 12.4749C22.9484 11.2223 20.484 11.0104 20.3793 11.0014C20.2148 10.9875 20.0585 11.0807 19.9915 11.2313C19.9865 11.2411 19.9325 11.3646 19.8728 11.5569C20.9029 11.7304 22.1686 12.0805 23.3141 12.7915C23.4974 12.9053 23.5538 13.1466 23.4401 13.3307C23.3665 13.4502 23.238 13.5156 23.1071 13.5156C23.0367 13.5156 22.9655 13.4968 22.9009 13.4567C20.9324 12.236 18.4729 12.1746 18 12.1746C17.5271 12.1746 15.0668 12.236 13.0999 13.4567C12.9158 13.5713 12.6753 13.514 12.5607 13.3307C12.4462 13.1466 12.5035 12.9061 12.6867 12.7915C13.8322 12.0814 15.0971 11.7304 16.128 11.5569C16.0675 11.3638 16.0135 11.2411 16.0094 11.2313C15.9415 11.0807 15.786 10.9858 15.6207 11.0022C15.5168 11.0104 13.0525 11.2223 11.4734 12.4929C10.6486 13.2546 9 17.7121 9 21.5657C9 21.6336 9.018 21.7007 9.05155 21.7596C10.1896 23.7585 13.2938 24.2821 14.0015 24.305C14.0056 24.305 14.0097 24.305 14.0138 24.305C14.139 24.305 14.2568 24.2453 14.3305 24.1438L15.0464 23.1604C13.1163 22.6613 12.1304 21.8145 12.0731 21.7645C11.9111 21.6214 11.8955 21.3743 12.0387 21.2123C12.1819 21.0503 12.4282 21.0347 12.5902 21.1771C12.6139 21.1984 14.4295 22.739 18 22.739C21.5771 22.739 23.3926 21.1918 23.4106 21.1763C23.5726 21.0355 23.8197 21.0503 23.9621 21.2131C24.1045 21.3751 24.0889 21.6214 23.9277 21.7637C23.8705 21.8145 22.8845 22.6605 20.9545 23.1596L21.6704 24.143C21.744 24.2445 21.8618 24.3042 21.987 24.3042C21.9911 24.3042 21.9952 24.3042 21.9993 24.3042C22.707 24.2821 25.8112 23.7585 26.9493 21.7588C26.982 21.6999 27 21.6336 27 21.5657C27 17.7121 25.3514 13.2546 24.5062 12.4749ZM15.4563 20.0006C14.7003 20.0006 14.0866 19.2994 14.0866 18.4354C14.0866 17.5714 14.6995 16.8702 15.4563 16.8702C16.2131 16.8702 16.8259 17.5714 16.8259 18.4354C16.8259 19.2994 16.2131 20.0006 15.4563 20.0006ZM20.5437 20.0006C19.7877 20.0006 19.1741 19.2994 19.1741 18.4354C19.1741 17.5714 19.7869 16.8702 20.5437 16.8702C21.2997 16.8702 21.9134 17.5714 21.9134 18.4354C21.9134 19.2994 21.2997 20.0006 20.5437 20.0006Z" fill="#747481"/>
</svg>
