<svg width="36" height="36" viewBox="0 0 36 36" fill="none" xmlns="http://www.w3.org/2000/svg">
<path fill-rule="evenodd" clip-rule="evenodd" d="M18 10C13.5807 10 10 13.5807 10 18C10 21.5339 12.2917 24.5339 15.4714 25.5911C15.8724 25.6641 16.0182 25.4193 16.0182 25.2057C16.0182 25.0156 16.0104 24.513 16.0078 23.8464C13.7812 24.3281 13.3125 22.7734 13.3125 22.7734C12.9479 21.849 12.4245 21.6016 12.4245 21.6016C11.6979 21.1068 12.4792 21.1172 12.4792 21.1172C13.2812 21.1745 13.7031 21.9401 13.7031 21.9401C14.4167 23.1641 15.5755 22.8099 16.0312 22.6068C16.1042 22.0885 16.3125 21.737 16.5391 21.5365C14.763 21.3359 12.8958 20.6484 12.8958 17.5833C12.8958 16.7083 13.2083 15.9948 13.7188 15.4349C13.638 15.2344 13.362 14.4193 13.7969 13.3177C13.7969 13.3177 14.4688 13.1042 15.9974 14.138C16.6354 13.9609 17.3203 13.8724 18 13.8698C18.6797 13.8724 19.3646 13.9609 20.0026 14.138C21.5313 13.1042 22.2005 13.3177 22.2005 13.3177C22.638 14.4193 22.3646 15.2344 22.2812 15.4349C22.7943 15.9948 23.1016 16.7083 23.1016 17.5833C23.1016 20.6562 21.2318 21.3307 19.4505 21.5312C19.737 21.776 19.9922 22.2656 19.9922 23.0104C19.9922 24.0807 19.9844 24.9427 19.9844 25.2057C19.9844 25.4193 20.1276 25.6693 20.5339 25.5911C23.7109 24.5312 26 21.5339 26 18C26 13.5807 22.4193 10 18 10Z" fill="#747481"/>
</svg>
