<svg width="576" height="56" viewBox="0 0 576 56" fill="none" xmlns="http://www.w3.org/2000/svg">
<path d="M62.0826 36.1799C66.5737 36.1799 69.7378 33.7648 69.7378 29.8117C69.7378 25.4958 66.1819 24.3786 62.8412 23.3289C59.6468 22.3634 58.8316 21.6737 58.8316 20.3717C58.8316 19.1648 59.8578 18.2586 61.6054 18.2586C63.7461 18.2586 64.8909 19.3758 65.644 20.9758L69.1406 18.9523C67.724 15.9882 65.0661 14.2075 61.5999 14.2075C57.9833 14.2075 54.6675 16.5013 54.6675 20.4848C54.6675 24.4999 57.8026 25.8641 61.0275 26.7937C64.1626 27.6986 65.5792 28.3027 65.5792 29.8723C65.5792 31.0489 64.7047 32.1054 62.2026 32.1054C59.5819 32.1054 58.1033 30.8379 57.3502 28.8751L53.793 30.9579C54.9378 34.0972 57.7723 36.1799 62.0826 36.1799Z" fill="#030B1C"/>
<path d="M79.5353 20.2435C77.3284 20.2435 75.7381 21.0587 74.6526 22.4504V20.667H70.7588V41.7939H74.6471V33.9773C75.7326 35.3649 77.3298 36.1842 79.5298 36.1842C83.5684 36.1842 86.8843 32.7125 86.8843 28.2159C86.8843 23.7194 83.574 20.2435 79.5353 20.2435ZM78.8126 32.4684C76.4305 32.4684 74.6526 30.747 74.6526 28.2118C74.6526 25.6766 76.4305 23.9566 78.8126 23.9566C81.2236 23.9566 83.0015 25.6766 83.0015 28.2118C83.0015 30.747 81.2236 32.4684 78.8126 32.4684Z" fill="#030B1C"/>
<path d="M96.5048 20.2435C94.4855 20.2435 92.9186 20.998 92.0138 22.3566V14.6324H88.1255V35.758H92.0138V27.609C92.0138 24.9883 93.4303 23.8655 95.3241 23.8655C97.0717 23.8655 98.3076 24.9221 98.3076 26.9745V35.758H102.207V26.4918C102.207 22.4835 99.6993 20.2435 96.5048 20.2435Z" fill="#030B1C"/>
<path d="M107.301 29.8118H118.664C118.762 29.2841 118.813 28.7486 118.815 28.2118C118.815 23.7759 115.65 20.2435 111.189 20.2435C106.457 20.2435 103.232 23.7153 103.232 28.2118C103.232 32.7084 106.426 36.1801 111.49 36.1801C114.386 36.1801 116.644 35.0035 118.061 32.9511L114.927 31.1401C114.264 32.0146 113.058 32.649 111.551 32.649C109.501 32.649 107.843 31.8035 107.301 29.8118ZM107.24 26.7939C107.693 24.8628 109.109 23.7456 111.189 23.7456C112.817 23.7456 114.444 24.6201 114.927 26.7939H107.24Z" fill="#030B1C"/>
<path d="M123.91 23.2627V20.6668H120.022V35.7578H123.91V28.5441C123.91 25.3716 126.473 24.4696 128.492 24.711V20.3647C126.593 20.3647 124.69 21.2103 123.91 23.2627Z" fill="#030B1C"/>
<path d="M136.708 36.1801C141.138 36.1801 144.695 32.7084 144.695 28.2118C144.695 23.7153 141.138 20.2435 136.708 20.2435C132.277 20.2435 128.75 23.7153 128.75 28.2118C128.75 32.7084 132.276 36.1801 136.708 36.1801ZM136.708 32.3773C134.417 32.3773 132.639 30.6573 132.639 28.2118C132.639 25.7663 134.417 24.0463 136.708 24.0463C139.028 24.0463 140.807 25.7677 140.807 28.2118C140.807 30.6559 139.035 32.3773 136.708 32.3773Z" fill="#030B1C"/>
<path d="M154.304 20.2435C152.284 20.2435 150.717 20.998 149.811 22.3566V20.667H145.923V35.758H149.811V27.609C149.811 24.9884 151.229 23.8656 153.121 23.8656C154.87 23.8656 156.106 24.9222 156.106 26.9746V35.758H160V26.4918C160 22.4835 157.498 20.2435 154.304 20.2435Z" fill="#030B1C"/>
<path d="M35.2221 1.21029V11.831C35.2219 12.1064 35.1507 12.3771 35.0154 12.617C34.8801 12.857 34.6852 13.0579 34.4497 13.2006L34.3835 13.2393L31.9007 14.6696L17.4483 22.9813L15.6938 23.9896C15.6641 24.0027 15.6359 24.0189 15.6097 24.0379C15.5004 24.1112 15.4109 24.2102 15.349 24.3263C15.2871 24.4423 15.2547 24.5719 15.2547 24.7034C15.2547 24.8349 15.2871 24.9645 15.349 25.0805C15.4109 25.1966 15.5004 25.2956 15.6097 25.3689L15.6759 25.4075L17.6552 26.5551L24.4138 30.4448L24.5338 30.5151C24.6396 30.5883 24.7261 30.6861 24.7859 30.8001C24.8456 30.9141 24.8768 31.0409 24.8768 31.1696C24.8768 31.2983 24.8456 31.4251 24.7859 31.5391C24.7261 31.6531 24.6396 31.7509 24.5338 31.8241L24.4166 31.8903L12.0676 39.0048L11.9986 39.0448C11.7649 39.173 11.5025 39.2399 11.2359 39.2393C10.9972 39.2384 10.7617 39.1847 10.5462 39.082L10.4772 39.0462L10.3724 38.9841L3.21104 34.8668L0.840001 33.5027C0.817932 33.4917 0.795863 33.4779 0.772415 33.4641C0.543412 33.3244 0.353586 33.1288 0.220691 32.8958C0.0763586 32.6544 9.58493e-05 32.3784 1.41345e-06 32.0972V21.0144C-0.000360486 20.7428 0.0687789 20.4757 0.200841 20.2383C0.332903 20.001 0.523496 19.8014 0.754484 19.6586C0.759779 19.6535 0.765829 19.6493 0.772415 19.6462C0.798485 19.6296 0.825677 19.6148 0.853794 19.602L0.864829 19.5937L3.20966 18.2448L11.1228 13.693L20.6593 8.20753L33.9724 0.552361C33.9934 0.537665 34.0155 0.524747 34.0386 0.51374C34.1554 0.448567 34.2869 0.414378 34.4207 0.41443C34.5259 0.414249 34.6302 0.434797 34.7275 0.474903C34.8248 0.515009 34.9132 0.573886 34.9878 0.648173C35.0623 0.72246 35.1215 0.810702 35.1619 0.90786C35.2024 1.00502 35.2233 1.10919 35.2234 1.21443L35.2221 1.21029Z" fill="#01ABFF"/>
<path d="M46.3449 23.9041V34.9869C46.3446 35.2619 46.2733 35.5322 46.138 35.7717C46.0027 36.0112 45.8079 36.2116 45.5725 36.3538L45.5049 36.3924L43.1338 37.7579L40.138 39.4821L35.2249 42.3083L25.6856 47.7938L12.3752 55.449C12.3539 55.4631 12.3318 55.476 12.309 55.4876C12.1917 55.5524 12.0596 55.5862 11.9256 55.5855C11.8203 55.5857 11.7161 55.5651 11.6188 55.525C11.5215 55.4849 11.433 55.4261 11.3585 55.3518C11.284 55.2775 11.2248 55.1892 11.1843 55.0921C11.1439 54.9949 11.123 54.8907 11.1228 54.7855V44.1648C11.1226 43.8897 11.1936 43.6192 11.3289 43.3796C11.4643 43.1401 11.6594 42.9397 11.8952 42.7979C11.9269 42.7772 11.9614 42.7593 11.9931 42.7428L14.4483 41.329L28.8966 33.0172L30.6276 32.0214L30.7394 31.9579L30.7504 31.951C30.8563 31.8774 30.9429 31.7792 31.0027 31.6649C31.0625 31.5506 31.0938 31.4235 31.0938 31.2945C31.0927 31.1633 31.0599 31.0343 30.9982 30.9186C30.9364 30.8028 30.8477 30.7037 30.7394 30.6297C30.7138 30.6126 30.687 30.5974 30.6594 30.5841L28.6897 29.4448L21.9311 25.5538L21.8014 25.4779C21.6981 25.4045 21.6138 25.3074 21.5557 25.1947C21.4975 25.0821 21.4672 24.9571 21.4672 24.8303C21.4672 24.7036 21.4975 24.5786 21.5557 24.466C21.6138 24.3533 21.6981 24.2562 21.8014 24.1828L21.9394 24.1055C21.9458 24.101 21.9527 24.0973 21.96 24.0945L34.28 17.0048L34.3766 16.9497C34.6063 16.8296 34.8616 16.767 35.1207 16.767C35.3799 16.767 35.6352 16.8296 35.8649 16.9497L35.9697 17.0103L43.1504 21.14L45.5214 22.5055C45.5444 22.5168 45.5665 22.5297 45.5876 22.5441C45.8168 22.6831 46.0067 22.8782 46.1394 23.111C46.2824 23.3533 46.3572 23.6297 46.3559 23.911L46.3449 23.9041Z" fill="#0057FF"/>
<rect x="180" y="10.5" width="1" height="35" fill="#2C2C30"/>
<path d="M219 13C215.022 13 211.206 14.5804 208.393 17.3934C205.58 20.2064 204 24.0218 204 28C204 31.9782 205.58 35.7936 208.393 38.6066C211.206 41.4196 215.022 43 219 43C222.978 43 226.794 41.4196 229.607 38.6066C232.42 35.7936 234 31.9782 234 28C234 24.0218 232.42 20.2064 229.607 17.3934C226.794 14.5804 222.978 13 219 13Z" fill="#29B6F6"/>
<path d="M226.463 21.25L223.653 35.5945C223.653 35.5945 223.532 36.25 222.719 36.25C222.287 36.25 222.065 36.0445 222.065 36.0445L215.979 30.9948L213.002 29.494L209.18 28.4778C209.18 28.4778 208.5 28.2813 208.5 27.7188C208.5 27.25 209.2 27.0265 209.2 27.0265L225.187 20.6755C225.187 20.6755 225.675 20.4993 226.031 20.5C226.25 20.5 226.5 20.5938 226.5 20.875C226.5 21.0625 226.463 21.25 226.463 21.25Z" fill="white"/>
<path d="M218.25 32.8788L215.681 35.4093C215.681 35.4093 215.569 35.4955 215.42 35.4993C215.368 35.5008 215.312 35.4925 215.255 35.467L215.978 30.9933L218.25 32.8788Z" fill="#B0BEC5"/>
<path d="M223.423 23.647C223.296 23.482 223.062 23.452 222.897 23.5773L213 29.5C213 29.5 214.579 33.919 214.82 34.684C215.062 35.4498 215.255 35.4678 215.255 35.4678L215.978 30.994L223.352 24.172C223.517 24.0468 223.548 23.812 223.423 23.647Z" fill="#CFD8DC"/>
<path d="M248.002 40V16.708H261.43C264.55 16.708 266.914 17.236 268.522 18.292C270.154 19.324 270.97 20.872 270.97 22.936C270.97 24.256 270.646 25.3 269.998 26.068C269.35 26.812 268.426 27.364 267.226 27.724C266.05 28.084 264.658 28.312 263.05 28.408L263.194 28.156C264.37 28.18 265.474 28.264 266.506 28.408C267.562 28.552 268.486 28.816 269.278 29.2C270.07 29.584 270.694 30.124 271.15 30.82C271.606 31.492 271.834 32.38 271.834 33.484C271.834 34.924 271.45 36.124 270.682 37.084C269.914 38.02 268.846 38.728 267.478 39.208C266.11 39.688 264.526 39.952 262.726 40H248.002ZM252.79 36.04H262.222C263.734 36.04 264.898 35.8 265.714 35.32C266.53 34.816 266.938 34.024 266.938 32.944C266.938 32.152 266.698 31.576 266.218 31.216C265.738 30.856 265.102 30.64 264.31 30.568C263.518 30.472 262.666 30.424 261.754 30.424H252.79V36.04ZM252.79 26.572H261.25C262.762 26.572 263.926 26.356 264.742 25.924C265.558 25.468 265.966 24.7 265.966 23.62C265.966 22.54 265.558 21.784 264.742 21.352C263.926 20.896 262.846 20.668 261.502 20.668H252.79V26.572ZM286.028 40.432C283.772 40.432 281.78 40.072 280.052 39.352C278.348 38.632 277.016 37.588 276.056 36.22C275.096 34.828 274.616 33.124 274.616 31.108C274.616 29.092 275.096 27.388 276.056 25.996C277.016 24.58 278.348 23.512 280.052 22.792C281.78 22.072 283.772 21.712 286.028 21.712C288.284 21.712 290.252 22.072 291.932 22.792C293.636 23.512 294.968 24.58 295.928 25.996C296.888 27.388 297.368 29.092 297.368 31.108C297.368 33.124 296.888 34.828 295.928 36.22C294.968 37.588 293.636 38.632 291.932 39.352C290.252 40.072 288.284 40.432 286.028 40.432ZM286.028 36.832C287.276 36.832 288.392 36.616 289.376 36.184C290.384 35.728 291.176 35.08 291.752 34.24C292.328 33.376 292.616 32.332 292.616 31.108C292.616 29.884 292.328 28.84 291.752 27.976C291.176 27.088 290.396 26.416 289.412 25.96C288.428 25.504 287.3 25.276 286.028 25.276C284.78 25.276 283.652 25.504 282.644 25.96C281.636 26.416 280.832 27.076 280.232 27.94C279.656 28.804 279.368 29.86 279.368 31.108C279.368 32.332 279.656 33.376 280.232 34.24C280.808 35.08 281.6 35.728 282.608 36.184C283.616 36.616 284.756 36.832 286.028 36.832ZM299.322 22.108H313.218V25.744H299.322V22.108ZM303.93 17.212H308.61V40H303.93V17.212ZM343.595 37.624H341.327L354.719 16.708H359.507V40H354.719V23.08L355.871 23.404L345.179 40H339.815L329.123 23.476L330.275 23.152V40H325.487V16.708H330.275L343.595 37.624ZM373.138 40.396C371.362 40.396 369.742 40.012 368.278 39.244C366.838 38.452 365.686 37.36 364.822 35.968C363.982 34.552 363.562 32.92 363.562 31.072C363.562 29.176 363.994 27.532 364.858 26.14C365.722 24.748 366.886 23.668 368.35 22.9C369.838 22.108 371.518 21.712 373.39 21.712C375.454 21.712 377.11 22.132 378.358 22.972C379.63 23.788 380.554 24.904 381.13 26.32C381.706 27.736 381.994 29.32 381.994 31.072C381.994 32.128 381.826 33.208 381.49 34.312C381.154 35.392 380.638 36.4 379.942 37.336C379.246 38.248 378.334 38.992 377.206 39.568C376.078 40.12 374.722 40.396 373.138 40.396ZM374.65 36.796C376.066 36.796 377.29 36.556 378.322 36.076C379.354 35.596 380.146 34.924 380.698 34.06C381.25 33.196 381.526 32.2 381.526 31.072C381.526 29.848 381.238 28.816 380.662 27.976C380.11 27.112 379.318 26.464 378.286 26.032C377.278 25.576 376.066 25.348 374.65 25.348C372.658 25.348 371.11 25.876 370.006 26.932C368.902 27.964 368.35 29.344 368.35 31.072C368.35 32.224 368.614 33.232 369.142 34.096C369.67 34.936 370.402 35.596 371.338 36.076C372.298 36.556 373.402 36.796 374.65 36.796ZM381.526 22.108H386.206V40H381.85C381.85 40 381.814 39.772 381.742 39.316C381.694 38.836 381.646 38.236 381.598 37.516C381.55 36.796 381.526 36.088 381.526 35.392V22.108ZM390.441 22.108H395.121V40H390.441V22.108ZM401.997 25.96C400.653 25.96 399.489 26.224 398.505 26.752C397.521 27.256 396.729 27.88 396.129 28.624C395.529 29.368 395.109 30.088 394.869 30.784L394.833 28.804C394.857 28.516 394.953 28.096 395.121 27.544C395.289 26.968 395.541 26.356 395.877 25.708C396.213 25.036 396.657 24.4 397.209 23.8C397.761 23.176 398.433 22.672 399.225 22.288C400.017 21.904 400.941 21.712 401.997 21.712V25.96ZM405.214 14.908H409.894V40H405.214V14.908ZM424.978 22.108L414.322 31.504L414.43 28.624L425.806 40H419.866L410.002 29.956L418.606 22.108H424.978ZM443.558 34.06H448.094C447.902 35.284 447.386 36.376 446.546 37.336C445.73 38.296 444.614 39.052 443.198 39.604C441.782 40.156 440.054 40.432 438.014 40.432C435.734 40.432 433.718 40.072 431.966 39.352C430.214 38.608 428.846 37.54 427.862 36.148C426.878 34.756 426.386 33.076 426.386 31.108C426.386 29.14 426.866 27.46 427.826 26.068C428.786 24.652 430.118 23.572 431.822 22.828C433.55 22.084 435.566 21.712 437.87 21.712C440.222 21.712 442.178 22.084 443.738 22.828C445.298 23.572 446.45 24.7 447.194 26.212C447.962 27.7 448.286 29.608 448.166 31.936H431.102C431.222 32.848 431.558 33.676 432.11 34.42C432.686 35.164 433.454 35.752 434.414 36.184C435.398 36.616 436.562 36.832 437.906 36.832C439.394 36.832 440.63 36.58 441.614 36.076C442.622 35.548 443.27 34.876 443.558 34.06ZM437.654 25.276C435.926 25.276 434.522 25.66 433.442 26.428C432.362 27.172 431.666 28.096 431.354 29.2H443.522C443.402 28 442.826 27.052 441.794 26.356C440.786 25.636 439.406 25.276 437.654 25.276ZM450.142 22.108H464.038V25.744H450.142V22.108ZM454.75 17.212H459.43V40H454.75V17.212ZM480.044 40.432C478.46 40.432 477.104 40.156 475.976 39.604C474.872 39.028 473.972 38.284 473.276 37.372C472.58 36.436 472.064 35.416 471.728 34.312C471.392 33.208 471.224 32.128 471.224 31.072C471.224 29.752 471.38 28.528 471.692 27.4C472.028 26.272 472.544 25.288 473.24 24.448C473.936 23.584 474.836 22.912 475.94 22.432C477.068 21.952 478.436 21.712 480.044 21.712C481.844 21.712 483.464 22.108 484.904 22.9C486.344 23.692 487.484 24.796 488.324 26.212C489.188 27.604 489.62 29.224 489.62 31.072C489.62 32.968 489.188 34.624 488.324 36.04C487.46 37.432 486.308 38.512 484.868 39.28C483.428 40.048 481.82 40.432 480.044 40.432ZM478.532 36.796C479.804 36.796 480.908 36.556 481.844 36.076C482.804 35.596 483.536 34.936 484.04 34.096C484.568 33.232 484.832 32.224 484.832 31.072C484.832 29.344 484.28 27.952 483.176 26.896C482.096 25.84 480.548 25.312 478.532 25.312C477.26 25.312 476.096 25.54 475.04 25.996C474.008 26.452 473.192 27.112 472.592 27.976C471.992 28.816 471.692 29.848 471.692 31.072C471.692 32.224 471.968 33.232 472.52 34.096C473.072 34.936 473.864 35.596 474.896 36.076C475.928 36.556 477.14 36.796 478.532 36.796ZM467.012 22.108H471.476L471.692 26.86V47.2H467.012V22.108ZM493.422 14.908H498.102V40H493.422V14.908ZM511.548 40.396C509.772 40.396 508.152 40.012 506.688 39.244C505.248 38.452 504.096 37.36 503.232 35.968C502.392 34.552 501.972 32.92 501.972 31.072C501.972 29.176 502.404 27.532 503.268 26.14C504.132 24.748 505.296 23.668 506.76 22.9C508.248 22.108 509.928 21.712 511.8 21.712C513.864 21.712 515.52 22.132 516.768 22.972C518.04 23.788 518.964 24.904 519.54 26.32C520.116 27.736 520.404 29.32 520.404 31.072C520.404 32.128 520.236 33.208 519.9 34.312C519.564 35.392 519.048 36.4 518.352 37.336C517.656 38.248 516.744 38.992 515.616 39.568C514.488 40.12 513.132 40.396 511.548 40.396ZM513.06 36.796C514.476 36.796 515.7 36.556 516.732 36.076C517.764 35.596 518.556 34.924 519.108 34.06C519.66 33.196 519.936 32.2 519.936 31.072C519.936 29.848 519.648 28.816 519.072 27.976C518.52 27.112 517.728 26.464 516.696 26.032C515.688 25.576 514.476 25.348 513.06 25.348C511.068 25.348 509.52 25.876 508.416 26.932C507.312 27.964 506.76 29.344 506.76 31.072C506.76 32.224 507.024 33.232 507.552 34.096C508.08 34.936 508.812 35.596 509.748 36.076C510.708 36.556 511.812 36.796 513.06 36.796ZM519.936 22.108H524.616V40H520.26C520.26 40 520.224 39.772 520.152 39.316C520.104 38.836 520.056 38.236 520.008 37.516C519.96 36.796 519.936 36.088 519.936 35.392V22.108ZM550.091 32.944C549.971 34.504 549.467 35.848 548.579 36.976C547.715 38.104 546.515 38.968 544.979 39.568C543.443 40.144 541.619 40.432 539.507 40.432C537.299 40.432 535.319 40.084 533.567 39.388C531.839 38.668 530.471 37.624 529.463 36.256C528.479 34.864 527.987 33.148 527.987 31.108C527.987 29.068 528.479 27.352 529.463 25.96C530.471 24.568 531.839 23.512 533.567 22.792C535.319 22.072 537.299 21.712 539.507 21.712C541.619 21.712 543.431 22.012 544.943 22.612C546.455 23.188 547.643 24.028 548.507 25.132C549.395 26.236 549.911 27.568 550.055 29.128H545.771C545.363 27.928 544.607 26.992 543.503 26.32C542.399 25.648 541.067 25.312 539.507 25.312C538.259 25.312 537.119 25.528 536.087 25.96C535.079 26.392 534.263 27.04 533.639 27.904C533.039 28.744 532.739 29.812 532.739 31.108C532.739 32.38 533.039 33.448 533.639 34.312C534.239 35.152 535.055 35.788 536.087 36.22C537.119 36.628 538.259 36.832 539.507 36.832C541.187 36.832 542.555 36.496 543.611 35.824C544.691 35.152 545.423 34.192 545.807 32.944H550.091ZM569.839 34.06H574.375C574.183 35.284 573.667 36.376 572.827 37.336C572.011 38.296 570.895 39.052 569.479 39.604C568.063 40.156 566.335 40.432 564.295 40.432C562.015 40.432 559.999 40.072 558.247 39.352C556.495 38.608 555.127 37.54 554.143 36.148C553.159 34.756 552.667 33.076 552.667 31.108C552.667 29.14 553.147 27.46 554.107 26.068C555.067 24.652 556.399 23.572 558.103 22.828C559.831 22.084 561.847 21.712 564.151 21.712C566.503 21.712 568.459 22.084 570.019 22.828C571.579 23.572 572.731 24.7 573.475 26.212C574.243 27.7 574.567 29.608 574.447 31.936H557.383C557.503 32.848 557.839 33.676 558.391 34.42C558.967 35.164 559.735 35.752 560.695 36.184C561.679 36.616 562.843 36.832 564.187 36.832C565.675 36.832 566.911 36.58 567.895 36.076C568.903 35.548 569.551 34.876 569.839 34.06ZM563.935 25.276C562.207 25.276 560.803 25.66 559.723 26.428C558.643 27.172 557.947 28.096 557.635 29.2H569.803C569.683 28 569.107 27.052 568.075 26.356C567.067 25.636 565.687 25.276 563.935 25.276Z" fill="#2C2C30"/>
</svg>
